<?xml version="1.0" encoding="UTF-8"?>
<svg id="Layer_2" data-name="Layer 2" xmlns="http://www.w3.org/2000/svg" xmlns:xlink="http://www.w3.org/1999/xlink" viewBox="0 0 228.52 221.89">
  <defs>
    <style>
      .cls-1 {
        fill: url(#linear-gradient-8);
      }

      .cls-2 {
        fill: url(#linear-gradient-7);
      }

      .cls-3 {
        fill: url(#linear-gradient-5);
      }

      .cls-4 {
        fill: url(#linear-gradient-6);
      }

      .cls-5 {
        fill: url(#linear-gradient-9);
      }

      .cls-6 {
        fill: url(#linear-gradient-4);
      }

      .cls-7 {
        fill: url(#linear-gradient-3);
      }

      .cls-8 {
        fill: url(#linear-gradient-2);
      }

      .cls-9 {
        fill: url(#linear-gradient);
      }

      .cls-10 {
        fill: url(#linear-gradient-10);
      }
    </style>
    <linearGradient id="linear-gradient" x1="120.96" y1="76.66" x2="111.76" y2="28.55" gradientTransform="translate(9.08 -18.25) rotate(.93)" gradientUnits="userSpaceOnUse">
      <stop offset="0" stop-color="#0071bc"/>
      <stop offset=".55" stop-color="#29abe2"/>
      <stop offset="1" stop-color="aqua"/>
    </linearGradient>
    <linearGradient id="linear-gradient-2" x1="139.12" y1="124.04" x2="170.36" y2="199.31" gradientTransform="translate(9.08 -18.25) rotate(.93)" gradientUnits="userSpaceOnUse">
      <stop offset="0" stop-color="#0071bc"/>
      <stop offset=".05" stop-color="#0376bf"/>
      <stop offset=".32" stop-color="#1792d2"/>
      <stop offset=".47" stop-color="#1f9dd9"/>
      <stop offset=".6" stop-color="#18b0e0"/>
      <stop offset=".87" stop-color="#08e3f4"/>
      <stop offset="1" stop-color="aqua"/>
    </linearGradient>
    <linearGradient id="linear-gradient-3" x1="115.66" y1="161.86" x2="53.65" y2="238.55" gradientTransform="translate(9.08 -18.25) rotate(.93)" gradientUnits="userSpaceOnUse">
      <stop offset="0" stop-color="#0071bc"/>
      <stop offset=".24" stop-color="#29abe2"/>
      <stop offset="1" stop-color="aqua"/>
    </linearGradient>
    <linearGradient id="linear-gradient-4" x1="127.56" y1="156.54" x2="166.94" y2="132.98" gradientTransform="translate(9.08 -18.25) rotate(.93)" gradientUnits="userSpaceOnUse">
      <stop offset="0" stop-color="aqua"/>
      <stop offset=".45" stop-color="#29abe2"/>
      <stop offset="1" stop-color="#0071bc"/>
    </linearGradient>
    <linearGradient id="linear-gradient-5" x1="85.72" y1="160.16" x2="33.18" y2="132.7" gradientTransform="translate(9.08 -18.25) rotate(.93)" gradientUnits="userSpaceOnUse">
      <stop offset="0" stop-color="#0071bc"/>
      <stop offset=".45" stop-color="#29abe2"/>
      <stop offset="1" stop-color="aqua"/>
    </linearGradient>
    <linearGradient id="linear-gradient-6" x1="135.15" y1="197.61" x2="159.3" y2="217.97" gradientTransform="translate(9.08 -18.25) rotate(.93)" gradientUnits="userSpaceOnUse">
      <stop offset="0" stop-color="#0071bc"/>
      <stop offset=".63" stop-color="#29abe2"/>
      <stop offset="1" stop-color="aqua"/>
    </linearGradient>
    <linearGradient id="linear-gradient-7" x1="112.45" y1="34.61" x2="14.46" y2="222.55" gradientTransform="translate(9.08 -18.25) rotate(.93)" gradientUnits="userSpaceOnUse">
      <stop offset="0" stop-color="aqua"/>
      <stop offset=".37" stop-color="#29abe2"/>
      <stop offset=".47" stop-color="#0071bc"/>
      <stop offset="1" stop-color="#0b397c"/>
    </linearGradient>
    <linearGradient id="linear-gradient-8" x1="230.36" y1="61.2" x2="-51.31" y2="117.53" gradientTransform="translate(9.08 -18.25) rotate(.93)" gradientUnits="userSpaceOnUse">
      <stop offset="0" stop-color="aqua"/>
      <stop offset=".12" stop-color="#01fbfd"/>
      <stop offset=".22" stop-color="#04f1f9"/>
      <stop offset=".32" stop-color="#09e0f3"/>
      <stop offset=".4" stop-color="#11c8ea"/>
      <stop offset=".48" stop-color="#1aaade"/>
      <stop offset=".52" stop-color="#1f9dd9"/>
      <stop offset="1" stop-color="#0071bc"/>
    </linearGradient>
    <linearGradient id="linear-gradient-9" x1="96.39" y1="106.95" x2="169.35" y2="95.09" xlink:href="#linear-gradient-2"/>
    <linearGradient id="linear-gradient-10" x1="56.97" y1="180.02" x2="23.83" y2="240.61" gradientTransform="translate(9.08 -18.25) rotate(.93)" gradientUnits="userSpaceOnUse">
      <stop offset="0" stop-color="#0071bc"/>
      <stop offset=".3" stop-color="#29abe2"/>
      <stop offset="1" stop-color="aqua"/>
    </linearGradient>
  </defs>
  <g id="graphics">
    <g>
      <path class="cls-9" d="M131.37,16.8c-.5,5.64-9.55,16.49-14.14,31.18-1.02,3.28-1.95,7.06-2.77,11.13,8.23-2.5,17.28-5.04,27.03-6.76-1.85-4-3.29-7.86-4.59-11.24-4.79-12.37-5.42-25.46-5.53-24.31Z"/>
      <path class="cls-8" d="M171.94,102.83c-17.02,1.71-38.53,6.65-49.7,10.12-2.4.75-4.89,1.53-7.46,2.31,2.61,3.76,5.18,7.31,7.6,10.66,8.35,11.58,23.67,37.12,29.27,53.66,2.48,7.3,4.03,16.42,4.65,25.37-.13,15.11,19.1,21.23,27.89,9.32l.09.08c11.04-13.05,19.47-31.37,14.55-55.25-4.74-23.02-16.36-41.37-26.89-56.27Z"/>
      <path class="cls-7" d="M122.39,125.92c-1.43-1.99-2.93-4.07-4.46-6.21-2.94,3.79-5.69,7.49-8.26,10.95-8.52,11.45-28.24,33.77-42.31,44.11-6.21,4.56-14.43,8.8-22.79,12.09-14.44,4.44-14.47,24.62-.47,29.39l-.05.11c15.78,6.58,35.79,9.09,57.07-2.81,21.14-11.82,35.35-29.1,46.52-43.94-7.03-15.55-18.46-34.25-25.27-43.69Z"/>
      <path class="cls-6" d="M216.41,106.27c-5.55,1.15-18.61-4.13-33.99-4.06-3.5.01-10.87.66-10.48.62,4.87,6.89,9.97,14.54,14.52,23.02,2.94-2.65,5.8-5.02,8.45-6.97,12.4-9.11,19.98-11.39,21.5-12.61Z"/>
      <path class="cls-3" d="M109.67,130.66c1.77-2.37,3.63-4.87,5.56-7.42-4.55-1.62-8.95-3.09-13.07-4.46-13.55-4.51-40.91-16.27-55.13-26.4-6.27-4.47-12.86-10.96-18.61-17.86C19.69,62.17.51,68.46.35,83.25h-.11c-1.32,17.03,2.55,36.82,20.51,53.32,17.74,16.3,38.46,24.39,55.99,30.36,12.42-11.35,26.18-27.21,32.93-36.28Z"/>
      <path class="cls-4" d="M150.51,176.39h0c-.83-2.16-1.8-4.43-2.86-6.77-4.96,6.59-10.54,13.66-17.05,20.53,3.48,1.99,6.68,3.98,9.39,5.92,8.44,6.02,14.59,13.4,19.3,18.27-5.31-6.87-.65-16.74-8.78-37.94Z"/>
      <path class="cls-2" d="M102.16,118.78c2.26.76,4.61,1.53,7.02,2.35.09-4.38.1-8.58.12-12.54.07-14.28,2.73-43.94,7.93-60.61,4.59-14.69,13.64-25.54,14.14-31.18.85-9.64-7.62-18.32-17.91-16.57v-.04c-17.22,3.72-35.9,13.43-46.42,36.58-9.69,21.31-11.13,42.89-11.4,61.08,14.84,8.59,35.35,17.22,46.51,20.93Z"/>
      <path class="cls-1" d="M57.37,71.61c-3.94.41-7.66.65-10.95.66-7.68.03-16.73-1.22-25.4-3.46,2.78.98,5.38,2.83,7.4,5.69,5.74,6.9,12.33,13.39,18.61,17.86,2.51,1.79,5.44,3.63,8.62,5.47.12-8.17.49-17.02,1.72-26.23Z"/>
      <path class="cls-5" d="M226.81,84.2l.04-.02c-8.75-15.29-23.64-30.17-48.89-33.21-24.06-2.9-45.72,2.71-63.5,8.13-3.37,16.61-5.1,38.01-5.16,49.48-.01,2.67-.03,5.46-.06,8.32,4.57-1.32,8.92-2.68,13-3.96,13.63-4.24,42.72-10.66,60.18-10.74,15.38-.07,28.46,5.29,33.99,4.06,9.45-2.1,15.16-12.79,10.39-22.07Z"/>
      <path class="cls-10" d="M44.57,186.86c8.35-3.29,16.58-7.53,22.79-12.09,2.93-2.16,6.11-4.85,9.38-7.83-8.22-2.8-17.15-6.08-26.14-10.44-.87,4.44-1.86,8.57-2.97,12.1-2.29,7.34-6.21,16.17-10.98,23.76,1.81-2.45,4.44-4.43,7.91-5.5Z"/>
    </g>
  </g>
</svg>