<?xml version="1.0" encoding="UTF-8"?>
<svg id="Layer_2" data-name="Layer 2" xmlns="http://www.w3.org/2000/svg" xmlns:xlink="http://www.w3.org/1999/xlink" viewBox="0 0 197.86 216.3">
  <defs>
    <style>
      .cls-1 {
        fill: url(#linear-gradient-3);
      }

      .cls-2 {
        fill: url(#linear-gradient-2);
      }

      .cls-3 {
        fill: url(#linear-gradient);
      }
    </style>
    <linearGradient id="linear-gradient" x1="44.57" y1="69.1" x2="197.83" y2="69.1" gradientUnits="userSpaceOnUse">
      <stop offset="0" stop-color="#0071bc"/>
      <stop offset=".05" stop-color="#0376bf"/>
      <stop offset=".32" stop-color="#1792d2"/>
      <stop offset=".47" stop-color="#1f9dd9"/>
      <stop offset=".6" stop-color="#18b0e0"/>
      <stop offset=".87" stop-color="#08e3f4"/>
      <stop offset="1" stop-color="aqua"/>
    </linearGradient>
    <linearGradient id="linear-gradient-2" x1="90.84" y1="130.66" x2="197.86" y2="130.66" xlink:href="#linear-gradient"/>
    <linearGradient id="linear-gradient-3" x1="0" y1="114.23" x2="152.85" y2="114.23" xlink:href="#linear-gradient"/>
  </defs>
  <g id="Layer_2-2" data-name="Layer 2">
    <g id="ubbaF2.tif">
      <g>
        <path class="cls-3" d="M157.49,19.85l28.42,16.54c5.25,3.4,10.93,6.36,11.78,13.37,1.25,10.36-5.68,17.05-15.56,18.18-7.22-2.08-13.93-6.13-20.45-9.8-12.62-7.1-26.35-16.88-39.1-23.41-20.04-10.25-43.82.05-46,22.74-2.03,21.17,1.35,45.26-.03,66.74-.41,1.2-.71,3.42-1.11,4.44-.18.48-.76.44-.94.8-2.36,4.63-4.08,5.64-8.9,7.34-.46.16-.38.89-.74.98-9.93,2.38-18.91-5.48-19.67-15.14-1.78-22.66.95-48.02.49-70.88C52.3,12.14,93.06-10.63,130.53,4.94c9.24,3.84,17.7,11,26.96,14.91Z"/>
        <path class="cls-2" d="M138.96,60.97l9.13,5.76,1.71.35,4.71,3.36c17.33,8.23,31.71,18.75,38.96,36.95,7.84,19.67,5.01,41.19-7.04,58.76-10.17,14.84-35.63,26.37-51.43,35.38-5.94,3.39-11.68,7.41-17.74,10.64-3.11,1.66-8.51,4.58-12.11,4.08-14.91-2.09-19.66-19.8-6.71-28.55,17.53-11.84,37.95-20.18,55.73-32.12,16.62-11.16,16.97-35.71,1.77-48.41l-59-34.13c-14.58-13.41-.83-35.02,18.01-25.83,8.05,3.92,15.77,9.97,24,13.76Z"/>
        <path class="cls-1" d="M25.44,48.65c2.37,1.84,5.01,6.8,5.35,9.79l.03,67.77c3.67,19.99,23.59,31.73,42.52,22.95,19.05-8.84,37.03-22.94,55.81-31.92,15.91-7.61,29.94,9.03,20.8,22.73-3.17,4.75-20.72,13.29-26.55,16.69-11.74,6.85-25.07,15.68-37.74,21.25C47.19,194.79,4.62,169.09.46,127.27c1.17-22.36-1.48-46.16,0-68.35.8-12.01,15.42-17.73,24.98-10.28Z"/>
      </g>
    </g>
  </g>
</svg>